<svg xmlns="http://www.w3.org/2000/svg" viewBox="0 0 64 64" role="img" aria-label="TorqueLine">
  <defs>
    <linearGradient id="bg" x1="0" y1="0" x2="1" y2="1">
      <stop offset="0%" stop-color="#d6b24a"/>
      <stop offset="100%" stop-color="#a37719"/>
    </linearGradient>
  </defs>
  <rect width="64" height="64" rx="14" fill="#11161f"/>
  <path fill="url(#bg)" d="M32 10a4 4 0 0 1 4 4v2.8a16.2 16.2 0 0 1 5.1 2.1l2-2a4 4 0 1 1 5.6 5.6l-2 2a16.2 16.2 0 0 1 2.1 5.1H52a4 4 0 1 1 0 8h-2.8a16.2 16.2 0 0 1-2.1 5.1l2 2a4 4 0 1 1-5.6 5.6l-2-2a16.2 16.2 0 0 1-5.1 2.1V50a4 4 0 1 1-8 0v-2.8a16.2 16.2 0 0 1-5.1-2.1l-2 2a4 4 0 1 1-5.6-5.6l2-2a16.2 16.2 0 0 1-2.1-5.1H14a4 4 0 1 1 0-8h2.8a16.2 16.2 0 0 1 2.1-5.1l-2-2a4 4 0 1 1 5.6-5.6l2 2a16.2 16.2 0 0 1 5.1-2.1V14a4 4 0 0 1 4-4zm0 12a10 10 0 1 0 0 20 10 10 0 0 0 0-20z"/>
</svg>
